<svg fill="none" height="20" viewBox="0 0 20 20" width="20" xmlns="http://www.w3.org/2000/svg"><path d="m15.2587 5.99147c.2344.23441.366.5523.366.88375 0 .33146-.1316.64934-.366.88375l-6.24995 6.25003c-.23441.2343-.5523.366-.88375.366-.33146 0-.64934-.1317-.88375-.366l-2.5-2.5c-.2277-.2358-.35369-.5515-.35084-.8793.00285-.3277.13431-.64124.36607-.873s.54527-.36322.87302-.36607c.32774-.00285.6435.12314.87925.35084l1.61625 1.61623 5.3663-5.36623c.2344-.23434.5522-.36598.8837-.36598s.6493.13164.8837.36598z" fill="#fff"/></svg>