<svg enable-background="new 0 0 1000 1000" viewBox="0 0 1000 1000" xmlns="http://www.w3.org/2000/svg"><path d="m128.8 607.2c0 136.7 110.8 247.5 247.5 247.5 45.1 0 87.3-12.1 123.7-33.1-74-42.8-123.7-122.8-123.7-214.4-74-42.8-123.7-122.8-123.7-214.4-74.1 42.8-123.8 122.8-123.8 214.4z" fill="#ec008c"/><path d="m623.7 607.2c0 91.6-49.8 171.6-123.7 214.4 36.4 21.1 78.7 33.1 123.7 33.1 136.7 0 247.5-110.8 247.5-247.5 0-91.6-49.8-171.6-123.7-214.4 0 91.6-49.8 171.6-123.8 214.4z" fill="#00aeef"/><path d="m623.7 607.2c-36.4 21.1-78.7 33.1-123.7 33.1s-87.3-12.1-123.7-33.1c0 91.6 49.8 171.6 123.7 214.4 74-42.8 123.7-122.8 123.7-214.4z" fill="#2e3192"/><path d="m500 392.8c36.4-21.1 78.7-33.1 123.7-33.1s87.3 12.1 123.7 33.1c0-136.7-110.8-247.5-247.5-247.5s-247.4 110.8-247.4 247.5c36.4-21.1 78.7-33.1 123.7-33.1s87.4 12.1 123.8 33.1z" fill="#fff200"/><path d="m376.3 607.2c0-91.6 49.8-171.6 123.7-214.4-36.4-21.1-78.7-33.1-123.7-33.1s-87.3 12.1-123.7 33.1c-.1 91.6 49.7 171.6 123.7 214.4z" fill="#ed1c24"/><path d="m500 392.8c74 42.8 123.7 122.8 123.7 214.4 74-42.8 123.7-122.8 123.7-214.4-36.4-21.1-78.7-33.1-123.7-33.1s-87.3 12.1-123.7 33.1z" fill="#00a651"/><path d="m623.7 607.2c0-91.6-49.8-171.6-123.7-214.4-74 42.8-123.7 122.8-123.7 214.4 36.4 21.1 78.7 33.1 123.7 33.1s87.3-12.1 123.7-33.1z"/></svg>