<svg xmlns="http://www.w3.org/2000/svg" aria-hidden="true" style="position:absolute;width:0;height:0;overflow:hidden"><symbol id="arrow-down" viewBox="0 0 20 20"><g fill="currentColor" fill-rule="evenodd" clip-rule="evenodd"><path d="M10 3.333a.833.833 0 0 0-.833.834v11.666a.833.833 0 0 0 1.666 0V4.168A.833.833 0 0 0 10 3.334z"/><path d="M3.577 9.41a.833.833 0 0 0 0 1.18l5.834 5.833a.833.833 0 0 0 1.178 0l5.833-5.834a.833.833 0 0 0-1.178-1.178L10 14.655 4.756 9.411a.833.833 0 0 0-1.179 0z"/></g></symbol><symbol id="checkmark" viewBox="0 0 20 20"><path fill="currentColor" d="M15.259 5.991a1.25 1.25 0 0 1 0 1.768l-6.25 6.25a1.25 1.25 0 0 1-1.768 0l-2.5-2.5A1.25 1.25 0 0 1 6.51 9.741l1.616 1.617 5.366-5.367a1.25 1.25 0 0 1 1.768 0"/></symbol><symbol id="chevron-down" viewBox="0 0 20 20"><path fill="currentColor" fill-rule="evenodd" d="M4.41 6.91a.833.833 0 0 1 1.18 0L10 11.322l4.41-4.41a.833.833 0 1 1 1.18 1.178l-5 5a.833.833 0 0 1-1.18 0l-5-5a.833.833 0 0 1 0-1.178z" clip-rule="evenodd"/></symbol><symbol id="chevron-left" viewBox="0 0 20 20"><path fill="currentColor" fill-rule="evenodd" d="M13.1 4.4c.3.3.3.9 0 1.2L8.7 10l4.4 4.4c.3.3.3.9 0 1.2s-.9.3-1.2 0l-5-5c-.3-.3-.3-.9 0-1.2l5-5c.3-.3.9-.3 1.2 0"/></symbol><symbol id="chevron-right" viewBox="0 0 20 20"><path fill="currentColor" fill-rule="evenodd" d="M6.9 15.6c-.3-.3-.3-.9 0-1.2l4.4-4.4-4.4-4.4c-.3-.3-.3-.9 0-1.2s.9-.3 1.2 0l5 5c.3.3.3.9 0 1.2l-5 5c-.3.3-.9.3-1.2 0"/></symbol><symbol id="chevron-up" viewBox="0 0 20 20"><path fill="currentColor" fill-rule="evenodd" d="M15.6 13.1c-.3.3-.9.3-1.2 0L10 8.7l-4.4 4.4c-.3.3-.9.3-1.2 0s-.3-.9 0-1.2l5-5c.3-.3.9-.3 1.2 0l5 5c.3.3.3.9 0 1.2"/></symbol><symbol id="close" viewBox="0 0 20 20"><g fill="currentColor" fill-rule="evenodd" clip-rule="evenodd"><path d="M15.59 4.41a.833.833 0 0 1 0 1.18l-10 10a.833.833 0 0 1-1.18-1.18l10-10a.833.833 0 0 1 1.18 0"/><path d="M4.41 4.41a.833.833 0 0 1 1.18 0l10 10a.833.833 0 1 1-1.18 1.18l-10-10a.833.833 0 0 1 0-1.18"/></g></symbol><symbol id="color-model" viewBox="0 0 1000 1000"><path fill="#ec008c" d="M128.8 607.2c0 136.7 110.8 247.5 247.5 247.5 45.1 0 87.3-12.1 123.7-33.1-74-42.8-123.7-122.8-123.7-214.4-74-42.8-123.7-122.8-123.7-214.4-74.1 42.8-123.8 122.8-123.8 214.4"/><path fill="#00aeef" d="M623.7 607.2c0 91.6-49.8 171.6-123.7 214.4 36.4 21.1 78.7 33.1 123.7 33.1 136.7 0 247.5-110.8 247.5-247.5 0-91.6-49.8-171.6-123.7-214.4 0 91.6-49.8 171.6-123.8 214.4"/><path fill="#2e3192" d="M623.7 607.2c-36.4 21.1-78.7 33.1-123.7 33.1s-87.3-12.1-123.7-33.1c0 91.6 49.8 171.6 123.7 214.4 74-42.8 123.7-122.8 123.7-214.4"/><path fill="#fff200" d="M500 392.8c36.4-21.1 78.7-33.1 123.7-33.1s87.3 12.1 123.7 33.1c0-136.7-110.8-247.5-247.5-247.5S252.5 256.1 252.5 392.8c36.4-21.1 78.7-33.1 123.7-33.1s87.4 12.1 123.8 33.1"/><path fill="#ed1c24" d="M376.3 607.2c0-91.6 49.8-171.6 123.7-214.4-36.4-21.1-78.7-33.1-123.7-33.1s-87.3 12.1-123.7 33.1c-.1 91.6 49.7 171.6 123.7 214.4"/><path fill="#00a651" d="M500 392.8c74 42.8 123.7 122.8 123.7 214.4 74-42.8 123.7-122.8 123.7-214.4-36.4-21.1-78.7-33.1-123.7-33.1s-87.3 12.1-123.7 33.1"/><path d="M623.7 607.2c0-91.6-49.8-171.6-123.7-214.4-74 42.8-123.7 122.8-123.7 214.4 36.4 21.1 78.7 33.1 123.7 33.1s87.3-12.1 123.7-33.1"/></symbol></svg>